<svg xmlns="http://www.w3.org/2000/svg" width="256" height="256"><path d="M0 0 C2.6348478 1.24441584 5.06354029 2.52542751 7.50927734 4.10473633 C8.32460937 4.62616211 9.13994141 5.14758789 9.97998047 5.68481445 C11.23004883 6.49789063 11.23004883 6.49789063 12.50537109 7.32739258 C14.17308548 8.39940298 15.84104699 9.47102903 17.50927734 10.54223633 C18.60671265 11.25367798 18.60671265 11.25367798 19.72631836 11.97949219 C20.45778076 12.44492432 21.18924316 12.91035645 21.94287109 13.38989258 C22.6949585 13.94338379 23.4470459 14.496875 24.22192383 15.06713867 C27.83876052 16.82541783 31.00098766 16.62077541 34.91162109 16.40161133 C36.46756721 16.35394678 38.02355943 16.30776795 39.57958984 16.26293945 C42.01663558 16.17613046 44.45135712 16.07695429 46.88671875 15.95117188 C60.37697942 15.29367481 60.37697942 15.29367481 63.98510742 17.81958008 C65.38881611 19.96748582 66.15880259 21.94819832 66.94287109 24.38989258 C67.66113208 26.09672244 68.39498419 27.79705248 69.14208984 29.49145508 C69.72990234 30.83566528 69.72990234 30.83566528 70.32958984 32.20703125 C77.25002167 47.14544837 87.6457393 52.75232243 102.29248047 59.11328125 C104.83626881 60.33854555 106.87656364 61.46560042 108.94287109 63.38989258 C109.27195305 66.10406393 109.36870634 68.37952092 109.25537109 71.07739258 C109.23990234 71.79475586 109.22443359 72.51211914 109.20849609 73.2512207 C109.07850635 78.02184414 108.72695849 82.68536823 107.94287109 87.38989258 C108.59513672 87.34348633 109.24740234 87.29708008 109.91943359 87.24926758 C115.83825271 87.00483257 119.29168883 87.32010809 123.94287109 91.38989258 C126.31184148 94.94334816 126.20546316 96.4930392 126.23339844 100.7097168 C126.24615814 102.01472137 126.25891785 103.31972595 126.27206421 104.66427612 C126.27512182 106.0910426 126.2773496 107.51781107 126.27880859 108.94458008 C126.28523599 110.40805187 126.29196431 111.87152237 126.29898071 113.33499146 C126.31095714 116.40328957 126.31466121 119.47147508 126.31347656 122.53979492 C126.31327344 126.46638788 126.34056614 130.39225653 126.37502098 134.3186779 C126.39728963 137.34192198 126.40131412 140.36499179 126.40025711 143.38830948 C126.4026135 144.83556742 126.41143927 146.28283013 126.42692184 147.73000717 C126.44657555 149.75700269 126.43822287 151.78421082 126.42871094 153.8112793 C126.43156097 154.96361053 126.43441101 156.11594177 126.43734741 157.30319214 C125.83759306 161.04707621 124.54557134 162.68677418 121.94287109 165.38989258 C118.84787449 167.49096751 116.38701939 167.61210701 112.69287109 167.51489258 C111.80083984 167.4968457 110.90880859 167.47879883 109.98974609 167.46020508 C109.31427734 167.43700195 108.63880859 167.41379883 107.94287109 167.38989258 C108.10787109 168.37989258 108.27287109 169.36989258 108.44287109 170.38989258 C108.93899565 174.77626368 109.29675716 179.16841725 109.50537109 183.57739258 C109.56853516 184.26639648 109.63169922 184.95540039 109.69677734 185.6652832 C109.75927734 187.68286133 109.75927734 187.68286133 108.94287109 191.38989258 C105.34841263 194.95463976 100.42534686 196.63519561 95.84130859 198.58911133 C79.4488044 205.75742387 73.17730327 215.71842652 66.21948242 231.73950195 C63.86846261 236.62048705 63.86846261 236.62048705 61.94287109 238.38989258 C58.75439453 238.62182617 58.75439453 238.62182617 54.80224609 238.28833008 C53.33459873 238.19736209 51.86663589 238.1113783 50.3984375 238.02978516 C49.62961243 237.98399323 48.86078735 237.93820129 48.06866455 237.89102173 C30.76054218 236.97214607 19.94523522 239.67830861 6.06640625 250.76416016 C1.63428401 254.15729674 1.63428401 254.15729674 -1.05712891 255.38989258 C-4.79351115 254.44828025 -7.95326238 252.38402975 -11.25244141 250.42114258 C-12.21537109 249.85008789 -13.17830078 249.2790332 -14.17041016 248.69067383 C-15.16427734 248.09641602 -16.15814453 247.5021582 -17.18212891 246.88989258 C-18.18373047 246.29563477 -19.18533203 245.70137695 -20.21728516 245.08911133 C-27.53786454 240.73606882 -27.53786454 240.73606882 -31.05712891 238.38989258 C-33.68796926 238.31409184 -36.20910292 238.3494031 -38.83056641 238.47583008 C-40.39301556 238.52060977 -41.95551919 238.56352026 -43.51806641 238.60473633 C-45.97724704 238.67891457 -48.43364791 238.76496587 -50.89111328 238.88354492 C-64.45881013 239.50744102 -64.45881013 239.50744102 -68.1081543 236.95581055 C-69.51063024 234.80866915 -70.27683477 232.83137894 -71.05712891 230.38989258 C-71.77516586 228.68296846 -72.50903482 226.9826413 -73.25634766 225.28833008 C-73.64822266 224.39218994 -74.04009766 223.4960498 -74.44384766 222.57275391 C-81.36427948 207.63433678 -91.75999712 202.02746273 -106.40673828 195.66650391 C-108.95052663 194.4412396 -110.99082145 193.31418474 -113.05712891 191.38989258 C-113.38621086 188.67572123 -113.48296415 186.40026423 -113.36962891 183.70239258 C-113.35416016 182.9850293 -113.33869141 182.26766602 -113.32275391 181.52856445 C-113.19276417 176.75794102 -112.8412163 172.09441693 -112.05712891 167.38989258 C-112.70939453 167.43629883 -113.36166016 167.48270508 -114.03369141 167.53051758 C-119.95251052 167.77495259 -123.40594664 167.45967706 -128.05712891 163.38989258 C-130.42609929 159.836437 -130.31972097 158.28674595 -130.34765625 154.07006836 C-130.36041595 152.76506378 -130.37317566 151.4600592 -130.38632202 150.11550903 C-130.38937963 148.68874255 -130.39160742 147.26197409 -130.39306641 145.83520508 C-130.3994938 144.37173329 -130.40622212 142.90826279 -130.41323853 141.4447937 C-130.42521495 138.37649558 -130.42891902 135.30831008 -130.42773438 132.23999023 C-130.42753125 128.31339727 -130.45482395 124.38752863 -130.48927879 120.46110725 C-130.51154745 117.43786318 -130.51557193 114.41479336 -130.51451492 111.39147568 C-130.51687131 109.94421774 -130.52569709 108.49695502 -130.54117966 107.04977798 C-130.56083337 105.02278247 -130.55248068 102.99557434 -130.54296875 100.96850586 C-130.54581879 99.81617462 -130.54866882 98.66384338 -130.55160522 97.47659302 C-129.95185088 93.73270895 -128.65982915 92.09301098 -126.05712891 89.38989258 C-122.9621323 87.28881765 -120.5012772 87.16767815 -116.80712891 87.26489258 C-115.91509766 87.28293945 -115.02306641 87.30098633 -114.10400391 87.31958008 C-113.42853516 87.3427832 -112.75306641 87.36598633 -112.05712891 87.38989258 C-112.22212891 86.39989258 -112.38712891 85.40989258 -112.55712891 84.38989258 C-113.05325346 80.00352148 -113.41101497 75.6113679 -113.61962891 71.20239258 C-113.68279297 70.51338867 -113.74595703 69.82438477 -113.81103516 69.11450195 C-113.87353516 67.09692383 -113.87353516 67.09692383 -113.05712891 63.38989258 C-109.46267044 59.8251454 -104.53960467 58.14458955 -99.95556641 56.19067383 C-83.56306222 49.02236129 -77.29156109 39.06135863 -70.33374023 23.0402832 C-67.98601231 18.16613245 -67.98601231 18.16613245 -66.05712891 16.38989258 C-62.94799805 16.20556641 -62.94799805 16.20556641 -59.09228516 16.59692383 C-57.65092008 16.70450532 -56.20906236 16.80563382 -54.7668457 16.90112305 C-53.62933365 16.97916168 -53.62933365 16.97916168 -52.46884155 17.05877686 C-32.81992621 18.25998492 -21.02975526 12.73837643 -5.75317383 0.72338867 C-3.05712891 -0.61010742 -3.05712891 -0.61010742 0 0 Z " fill="#040302" transform="translate(130.05712890625,0.610107421875)"></path><path d="M0 0 C0.96401608 -0.00155999 1.92803215 -0.00311998 2.92126083 -0.00472724 C6.17180634 -0.00873587 9.42230566 -0.00554811 12.67285156 -0.00241089 C14.9949954 -0.00376499 17.31713902 -0.00554497 19.63928223 -0.00772095 C25.96141584 -0.01229423 32.2835332 -0.01050615 38.60566711 -0.00734186 C44.54000969 -0.00507326 50.47435021 -0.00680117 56.40869284 -0.00826906 C68.87856339 -0.01112305 81.3484266 -0.00783809 93.81829596 -0.00246869 C104.52632859 0.00199928 115.23435038 0.00122332 125.94238281 -0.00338745 C138.36654463 -0.00873464 150.79070001 -0.01084836 163.21486282 -0.00777519 C169.79554759 -0.00621266 176.37622489 -0.00601799 182.95690918 -0.00931168 C189.14231615 -0.01219103 195.32770256 -0.01021348 201.5131073 -0.00441742 C203.78919948 -0.00309017 206.06529338 -0.00348334 208.34138489 -0.00568008 C211.43659801 -0.00839295 214.53174431 -0.00500873 217.62695312 0 C218.99356394 -0.00334608 218.99356394 -0.00334608 220.38778305 -0.00675976 C226.58517658 0.01283365 226.58517658 0.01283365 228.81347656 1.12698364 C228.81347656 21.58698364 228.81347656 42.04698364 228.81347656 63.12698364 C226.47420599 64.29661893 225.11671008 64.25028954 222.51083374 64.24723816 C221.15623802 64.24930016 221.15623802 64.24930016 219.77427673 64.25140381 C218.78093826 64.24780853 217.78759979 64.24421326 216.76416016 64.24050903 C215.72023605 64.24065506 214.67631195 64.24080109 213.60075378 64.24095154 C210.13778633 64.24025286 206.67487216 64.23246255 203.21191406 64.22463989 C200.81580637 64.22277555 198.4196983 64.22135173 196.02359009 64.22035217 C189.70738681 64.21652825 183.39120642 64.20669902 177.07501221 64.19564819 C170.63367014 64.18543139 164.19232439 64.18085397 157.75097656 64.17581177 C145.10513345 64.16507666 132.45930622 64.14819309 119.81347656 64.12698364 C119.81347656 66.43698364 119.81347656 68.74698364 119.81347656 71.12698364 C141.26347656 71.12698364 162.71347656 71.12698364 184.81347656 71.12698364 C181.13588896 85.83733407 166.6052156 98.47847204 154.13769531 106.20413208 C147.6687697 109.98247449 140.8987148 112.73715194 133.81347656 115.12698364 C132.83765625 115.46729614 131.86183594 115.80760864 130.85644531 116.15823364 C109.73382309 122.26597983 86.50841726 118.58285552 67.49707031 108.25198364 C53.35575917 100.23966262 40.51970143 88.61015331 32.81347656 74.12698364 C32.81347656 73.13698364 32.81347656 72.14698364 32.81347656 71.12698364 C54.26347656 71.12698364 75.71347656 71.12698364 97.81347656 71.12698364 C97.81347656 68.81698364 97.81347656 66.50698364 97.81347656 64.12698364 C96.98906791 64.12836633 96.98906791 64.12836633 96.14800453 64.12977695 C82.78663942 64.15184299 69.4252775 64.1683367 56.06389809 64.17879581 C49.60248767 64.18402319 43.14109037 64.19111821 36.6796875 64.2024231 C30.44869228 64.21325712 24.21770969 64.21926158 17.98670578 64.22186089 C15.60476863 64.2237142 13.22283221 64.22733303 10.84090042 64.2327137 C7.51484917 64.23993093 4.18885074 64.24097429 0.86279297 64.24050903 C-0.62721474 64.24590195 -0.62721474 64.24590195 -2.14732361 64.25140381 C-3.05038742 64.25002914 -3.95345123 64.24865448 -4.88388062 64.24723816 C-5.67109182 64.24815995 -6.45830303 64.24908175 -7.26936913 64.25003147 C-9.18652344 64.12698364 -9.18652344 64.12698364 -11.18652344 63.12698364 C-11.18652344 42.66698364 -11.18652344 22.20698364 -11.18652344 1.12698364 C-7.74690446 -0.59282584 -3.78518136 -0.00926784 0 0 Z " fill="#FBBF75" transform="translate(19.1865234375,95.87301635742188)"></path><path d="M0 0 C3.11696233 0.94000375 4.73048706 1.94726741 7.17578125 4.05664062 C23.80064655 17.144158 38.80356147 16.51299629 58.97265625 14.89648438 C59.49436401 15.90231567 59.49436401 15.90231567 60.02661133 16.9284668 C61.61115951 19.98115707 63.19813314 23.03258008 64.78515625 26.08398438 C65.6059668 27.66663086 65.6059668 27.66663086 66.44335938 29.28125 C66.97509766 30.30283203 67.50683594 31.32441406 68.0546875 32.37695312 C68.78522339 33.78303833 68.78522339 33.78303833 69.53051758 35.2175293 C70.00642334 36.10158447 70.4823291 36.98563965 70.97265625 37.89648438 C71.39546875 38.75757813 71.81828125 39.61867187 72.25390625 40.50585938 C74.53060378 43.67253867 76.94010808 44.87049777 80.390625 46.66601562 C81.31649162 47.15481453 81.31649162 47.15481453 82.26106262 47.65348816 C84.22111233 48.68462391 86.19019849 49.69692911 88.16015625 50.70898438 C89.49608354 51.40763015 90.8313779 52.10748763 92.16601562 52.80859375 C95.42678273 54.52105379 98.69913591 56.20767927 101.97265625 57.89648438 C101.97265625 64.82648438 101.97265625 71.75648437 101.97265625 78.89648438 C96.03265625 78.89648438 90.09265625 78.89648438 83.97265625 78.89648438 C82.83828125 76.81335938 81.70390625 74.73023437 80.53515625 72.58398438 C76.69196793 65.74045428 72.21568826 59.75296071 66.97265625 53.89648438 C66.42222656 53.26355469 65.87179688 52.630625 65.3046875 51.97851562 C50.46003019 35.96094712 26.00079904 25.69769805 4.46875 24.63867188 C-13.05891249 24.08387906 -28.056257 27.9352386 -44.02734375 34.89648438 C-45.69154078 35.56929228 -47.35724195 36.23847053 -49.02734375 36.89648438 C-48.53234375 37.68023437 -48.03734375 38.46398438 -47.52734375 39.27148438 C-46.02734375 41.89648438 -46.02734375 41.89648438 -46.02734375 43.89648438 C-45.05796875 43.36539063 -44.08859375 42.83429687 -43.08984375 42.28710938 C-22.41094044 31.24723063 0.57262062 27.81510653 23.41015625 34.64257812 C46.55156021 42.78774333 63.99194661 56.4736134 75.97265625 77.89648438 C75.97265625 78.22648437 75.97265625 78.55648437 75.97265625 78.89648438 C25.15265625 78.89648438 -25.66734375 78.89648438 -78.02734375 78.89648438 C-72.95989728 68.76159144 -63.75101049 54.25831774 -53.02734375 48.89648438 C-53.60318807 46.51084361 -54.2496197 44.22965653 -55.02734375 41.89648438 C-68.63665613 52.43890945 -78.00501301 63.62817747 -86.02734375 78.89648438 C-91.96734375 78.89648438 -97.90734375 78.89648438 -104.02734375 78.89648438 C-104.02734375 71.96648437 -104.02734375 65.03648438 -104.02734375 57.89648438 C-102.42503906 57.06503906 -100.82273437 56.23359375 -99.171875 55.37695312 C-97.06115528 54.27937887 -94.95048055 53.18171809 -92.83984375 52.08398438 C-91.78474609 51.53677734 -90.72964844 50.98957031 -89.64257812 50.42578125 C-88.11020508 49.62817383 -88.11020508 49.62817383 -86.546875 48.81445312 C-85.60948486 48.3274292 -84.67209473 47.84040527 -83.70629883 47.33862305 C-82.82224365 46.86271729 -81.93818848 46.38681152 -81.02734375 45.89648438 C-80.16625 45.47367188 -79.30515625 45.05085938 -78.41796875 44.61523438 C-75.25128946 42.33853684 -74.05333035 39.92903254 -72.2578125 36.47851562 C-71.93194656 35.86127121 -71.60608063 35.24402679 -71.27033997 34.608078 C-70.23920421 32.64802829 -69.22689902 30.67894213 -68.21484375 28.70898438 C-67.51619798 27.37305708 -66.8163405 26.03776272 -66.11523438 24.703125 C-64.40518394 21.44145357 -62.71187779 18.17142138 -61.02734375 14.89648438 C-60.12306641 14.97503662 -59.21878906 15.05358887 -58.28710938 15.13452148 C-36.59387797 16.7631631 -22.75783901 15.70043431 -5.37207031 1.15991211 C-3.02734375 -0.10351562 -3.02734375 -0.10351562 0 0 Z " fill="#FCFCFC" transform="translate(129.02734375,10.103515625)"></path><path d="M0 0 C2.31 0 4.62 0 7 0 C7 1.32 7 2.64 7 4 C9.64 4 12.28 4 15 4 C15 2.68 15 1.36 15 0 C17.31 0 19.62 0 22 0 C22 1.32 22 2.64 22 4 C43.45 4 64.9 4 87 4 C83.32241239 18.71035043 68.79173904 31.35148839 56.32421875 39.07714844 C49.85529313 42.85549085 43.08523823 45.61016829 36 48 C35.02417969 48.3403125 34.04835938 48.680625 33.04296875 49.03125 C11.92034653 55.13899619 -11.3050593 51.45587188 -30.31640625 41.125 C-44.4577174 33.11267898 -57.29377514 21.48316967 -65 7 C-65 6.01 -65 5.02 -65 4 C-43.55 4 -22.1 4 0 4 C0 2.68 0 1.36 0 0 Z " fill="#FDFDFD" transform="translate(117,163)"></path><path d="M0 0 C3.11696233 0.94000375 4.73048706 1.94726741 7.17578125 4.05664062 C23.80064655 17.144158 38.80356147 16.51299629 58.97265625 14.89648438 C59.49436401 15.90231567 59.49436401 15.90231567 60.02661133 16.9284668 C61.61115951 19.98115707 63.19813314 23.03258008 64.78515625 26.08398438 C65.6059668 27.66663086 65.6059668 27.66663086 66.44335938 29.28125 C66.97509766 30.30283203 67.50683594 31.32441406 68.0546875 32.37695312 C68.78522339 33.78303833 68.78522339 33.78303833 69.53051758 35.2175293 C70.00642334 36.10158447 70.4823291 36.98563965 70.97265625 37.89648438 C71.39546875 38.75757813 71.81828125 39.61867187 72.25390625 40.50585938 C74.53060378 43.67253867 76.94010808 44.87049777 80.390625 46.66601562 C81.31649162 47.15481453 81.31649162 47.15481453 82.26106262 47.65348816 C84.22111233 48.68462391 86.19019849 49.69692911 88.16015625 50.70898438 C89.49608354 51.40763015 90.8313779 52.10748763 92.16601562 52.80859375 C95.42678273 54.52105379 98.69913591 56.20767927 101.97265625 57.89648438 C101.97265625 64.82648438 101.97265625 71.75648437 101.97265625 78.89648438 C96.03265625 78.89648438 90.09265625 78.89648438 83.97265625 78.89648438 C82.83828125 76.81335938 81.70390625 74.73023437 80.53515625 72.58398438 C76.69196793 65.74045428 72.21568826 59.75296071 66.97265625 53.89648438 C66.42222656 53.26355469 65.87179688 52.630625 65.3046875 51.97851562 C50.46003019 35.96094712 26.00079904 25.69769805 4.46875 24.63867188 C-13.05891249 24.08387906 -28.056257 27.9352386 -44.02734375 34.89648438 C-45.69154078 35.56929228 -47.35724195 36.23847053 -49.02734375 36.89648438 C-48.36734375 38.21648438 -47.70734375 39.53648438 -47.02734375 40.89648438 C-50.49234375 42.87648438 -50.49234375 42.87648438 -54.02734375 44.89648438 C-54.35734375 43.90648437 -54.68734375 42.91648438 -55.02734375 41.89648438 C-68.63665613 52.43890945 -78.00501301 63.62817747 -86.02734375 78.89648438 C-91.96734375 78.89648438 -97.90734375 78.89648438 -104.02734375 78.89648438 C-104.02734375 71.96648437 -104.02734375 65.03648438 -104.02734375 57.89648438 C-102.42503906 57.06503906 -100.82273437 56.23359375 -99.171875 55.37695312 C-97.06115528 54.27937887 -94.95048055 53.18171809 -92.83984375 52.08398438 C-91.78474609 51.53677734 -90.72964844 50.98957031 -89.64257812 50.42578125 C-88.11020508 49.62817383 -88.11020508 49.62817383 -86.546875 48.81445312 C-85.60948486 48.3274292 -84.67209473 47.84040527 -83.70629883 47.33862305 C-82.82224365 46.86271729 -81.93818848 46.38681152 -81.02734375 45.89648438 C-80.16625 45.47367188 -79.30515625 45.05085938 -78.41796875 44.61523438 C-75.25128946 42.33853684 -74.05333035 39.92903254 -72.2578125 36.47851562 C-71.93194656 35.86127121 -71.60608063 35.24402679 -71.27033997 34.608078 C-70.23920421 32.64802829 -69.22689902 30.67894213 -68.21484375 28.70898438 C-67.51619798 27.37305708 -66.8163405 26.03776272 -66.11523438 24.703125 C-64.40518394 21.44145357 -62.71187779 18.17142138 -61.02734375 14.89648438 C-60.12306641 14.97503662 -59.21878906 15.05358887 -58.28710938 15.13452148 C-36.59387797 16.7631631 -22.75783901 15.70043431 -5.37207031 1.15991211 C-3.02734375 -0.10351562 -3.02734375 -0.10351562 0 0 Z " fill="#FABE75" transform="translate(129.02734375,10.103515625)"></path><path d="M0 0 C5.94 0 11.88 0 18 0 C19.134375 2.083125 20.26875 4.16625 21.4375 6.3125 C25.28068832 13.15603009 29.75696799 19.14352366 35 25 C35.55042969 25.63292969 36.10085937 26.26585937 36.66796875 26.91796875 C48.3960374 39.57269962 65.54340378 47.8121961 82 52 C83.26457031 52.33837891 83.26457031 52.33837891 84.5546875 52.68359375 C106.90660407 57.73192382 132.17625256 52.50723175 151.70458984 40.85424805 C167.92811519 30.51626479 178.83046772 16.70164809 188 0 C193.94 0 199.88 0 206 0 C206 6.93 206 13.86 206 21 C204.39769531 21.83144531 202.79539063 22.66289062 201.14453125 23.51953125 C199.03381153 24.61710551 196.9231368 25.71476629 194.8125 26.8125 C193.75740234 27.35970703 192.70230469 27.90691406 191.61523438 28.47070312 C190.08286133 29.26831055 190.08286133 29.26831055 188.51953125 30.08203125 C187.58214111 30.56905518 186.64475098 31.0560791 185.67895508 31.55786133 C184.7948999 32.03376709 183.91084473 32.50967285 183 33 C182.13366943 33.43328613 181.26733887 33.86657227 180.37475586 34.31298828 C177.34311832 36.46664464 176.20127778 38.62242226 174.484375 41.91015625 C173.56785156 43.64168945 173.56785156 43.64168945 172.6328125 45.40820312 C172.00492961 46.62615844 171.37732853 47.84425907 170.75 49.0625 C170.10798627 50.28514421 169.46476851 51.50715698 168.8203125 52.72851562 C166.85332478 56.47206991 164.89124658 60.21750685 163 64 C162.09572266 63.92144775 161.19144531 63.84289551 160.25976562 63.76196289 C138.56653422 62.13332128 124.73049526 63.19605006 107.34472656 77.73657227 C104.13053197 79.4685024 102.45972484 78.99734234 99 78 C96.62231445 76.81665039 96.62231445 76.81665039 94.36328125 75.34765625 C93.12674805 74.55391602 93.12674805 74.55391602 91.86523438 73.74414062 C91.02283203 73.18919922 90.18042969 72.63425781 89.3125 72.0625 C88.03149414 71.23588867 88.03149414 71.23588867 86.72460938 70.39257812 C83.46640234 68.2861332 80.22820153 66.15213435 77 64 C74.38590855 63.82854185 71.88130326 63.76766568 69.26953125 63.8046875 C68.51911057 63.8075174 67.76868988 63.81034729 66.99552917 63.81326294 C64.60102325 63.82444938 62.20689269 63.84955072 59.8125 63.875 C58.18815645 63.88503181 56.56380703 63.89415731 54.93945312 63.90234375 C50.959491 63.92438363 46.97980912 63.9589026 43 64 C42.63237549 63.26885986 42.26475098 62.53771973 41.88598633 61.78442383 C40.2048939 58.45525335 38.50888554 55.1339021 36.8125 51.8125 C36.23435547 50.66201172 35.65621094 49.51152344 35.06054688 48.32617188 C34.20493164 46.65844727 34.20493164 46.65844727 33.33203125 44.95703125 C32.81358643 43.93585205 32.2951416 42.91467285 31.76098633 41.86254883 C28.47305822 36.5178993 24.5858713 33.48205773 19.04296875 30.66796875 C17.93115234 30.09755859 16.81933594 29.52714844 15.67382812 28.93945312 C14.52333984 28.36130859 13.37285156 27.78316406 12.1875 27.1875 C11.01767578 26.59001953 9.84785156 25.99253906 8.64257812 25.37695312 C5.76609493 23.90935966 2.88362232 22.4535159 0 21 C0 14.07 0 7.14 0 0 Z " fill="#FBBF75" transform="translate(25,167)"></path><path d="M0 0 C2.31 0 4.62 0 7 0 C7 1.32 7 2.64 7 4 C9.64 4 12.28 4 15 4 C15 2.68 15 1.36 15 0 C17.31 0 19.62 0 22 0 C22 1.32 22 2.64 22 4 C43.45 4 64.9 4 87 4 C86.22404875 7.10380501 85.4731994 9.25002779 84 12 C65.16378656 12.27064854 46.32744229 12.50687769 27.4902916 12.70202446 C18.74404992 12.79343712 9.99821267 12.89615201 1.25244141 13.02539062 C-6.36950811 13.13799364 -13.99136689 13.22947629 -21.61386752 13.29549801 C-25.65087337 13.33120464 -29.68712947 13.3775513 -33.72367096 13.44918442 C-37.52230643 13.51626211 -41.32018098 13.55511519 -45.11935997 13.57224464 C-46.51428029 13.58352457 -47.9091608 13.6051557 -49.30374336 13.63785744 C-59.80560641 13.87560522 -59.80560641 13.87560522 -62.7330246 11.72952652 C-64.57396132 9.15109 -65 7.13964033 -65 4 C-43.55 4 -22.1 4 0 4 C0 2.68 0 1.36 0 0 Z " fill="#97DAEC" transform="translate(117,163)"></path><path d="M0 0 C48.18 0 96.36 0 146 0 C147.98 3.96 147.98 3.96 150 8 C99.18 8 48.36 8 -4 8 C-2.68 5.36 -1.36 2.72 0 0 Z " fill="#95D8EA" transform="translate(55,81)"></path><path d="M0 0 C16 0 16 0 22 4 C27.0039623 9.40968897 27.35784973 14.00413141 27.28125 21.17578125 C26.71906853 26.82102015 24.48540776 30.62069279 20.375 34.4375 C12.98652194 39.29834083 13.37024381 37 0 37 C0 24.79 0 12.58 0 0 Z " fill="#040301" transform="translate(200,109)"></path><path d="M0 0 C15 0 15 0 21 4 C23.45410358 7.68115537 23.23287843 9.65293598 23 14 C22.67 14.99 22.34 15.98 22 17 C22.639375 17.928125 23.27875 18.85625 23.9375 19.8125 C26.26324556 23.40683404 26.69673846 24.81956921 26 29 C23.45371785 33.80964405 21.83665278 35.09800833 17 38 C11.39 38 5.78 38 0 38 C0 25.46 0 12.92 0 0 Z " fill="#070603" transform="translate(29,109)"></path><path d="M0 0 C7 0 7 0 9.00390625 1.8359375 C9.51824219 2.67382812 10.03257812 3.51171875 10.5625 4.375 C11.13226563 5.27734375 11.70203125 6.1796875 12.2890625 7.109375 C12.85367188 8.06328125 13.41828125 9.0171875 14 10 C14.58523437 10.95390625 15.17046875 11.9078125 15.7734375 12.890625 C17.20669264 15.24573908 18.60662804 17.62107226 20 20 C20.33 13.4 20.66 6.8 21 0 C23.64 0 26.28 0 29 0 C29 12.21 29 24.42 29 37 C21 37 21 37 18.99023438 35.25585938 C18.52939453 34.45986328 18.06855469 33.66386719 17.59375 32.84375 C17.078125 31.98652344 16.5625 31.12929687 16.03125 30.24609375 C15.5259375 29.33988281 15.020625 28.43367188 14.5 27.5 C13.96375 26.59378906 13.4275 25.68757813 12.875 24.75390625 C11.55695862 22.5179432 10.27490707 20.2608352 9 18 C8.67 24.6 8.34 31.2 8 38 C5.36 38 2.72 38 0 38 C0 25.46 0 12.92 0 0 Z " fill="#0A0704" transform="translate(156,109)"></path><path d="M0 0 C17.08571429 0 17.08571429 0 22 4 C24.47281478 7.70922216 24.54814927 10.69913651 24 15 C22.31222208 18.71311143 19.97048274 21.23437814 17 24 C17.77537109 24.79664063 17.77537109 24.79664063 18.56640625 25.609375 C19.22511719 26.31578125 19.88382813 27.0221875 20.5625 27.75 C21.22378906 28.44609375 21.88507813 29.1421875 22.56640625 29.859375 C24 32 24 32 23.83984375 34.140625 C23 36 23 36 21 38 C19.140625 37.94140625 19.140625 37.94140625 17 37 C14.859375 34.71484375 14.859375 34.71484375 12.75 31.9375 C12.04359375 31.01839844 11.3371875 30.09929687 10.609375 29.15234375 C10.07828125 28.44207031 9.5471875 27.73179687 9 27 C8.67 30.63 8.34 34.26 8 38 C5.36 38 2.72 38 0 38 C0 25.46 0 12.92 0 0 Z " fill="#0B0805" transform="translate(69,109)"></path><path d="M0 0 C2.31 0 4.62 0 7 0 C8.88166217 4.7826055 10.75104145 9.56975915 12.60913086 14.36157227 C13.24313225 15.99146726 13.88048799 17.62006155 14.52124023 19.24731445 C15.44095815 21.58472303 16.34856485 23.92652312 17.25390625 26.26953125 C17.54342667 26.99775589 17.83294708 27.72598053 18.13124084 28.47627258 C20.11387171 33.65838488 20.11387171 33.65838488 19 37 C16.03 37.495 16.03 37.495 13 38 C12.01 35.69 11.02 33.38 10 31 C5.71 31 1.42 31 -3 31 C-3.99 33.31 -4.98 35.62 -6 38 C-7.98 37.67 -9.96 37.34 -12 37 C-13.71784987 32.92346422 -12.06924381 29.74235858 -10.5078125 25.8984375 C-10.24241669 25.22076324 -9.97702087 24.54308899 -9.70358276 23.84487915 C-8.85437204 21.68401315 -7.98984105 19.52965124 -7.125 17.375 C-6.5497865 15.91705874 -5.97555622 14.45872916 -5.40234375 13 C-1.30663383 2.61326766 -1.30663383 2.61326766 0 0 Z " fill="#070503" transform="translate(121,109)"></path><path d="M0 0 C0 21.12 0 42.24 0 64 C-6 64 -6 64 -8 63 C-8 42.54 -8 22.08 -8 1 C-6 0 -6 0 0 0 Z " fill="#F49400" transform="translate(16,96)"></path><path d="M0 0 C8 0 8 0 10.4375 1.875 C13.32270701 5.79888153 13.4959118 9.23570448 13 14 C11.80151529 17.23590871 10.94742121 19.28126667 8.1875 21.375 C6 22 6 22 0 22 C0 14.74 0 7.48 0 0 Z " fill="#F5BA72" transform="translate(207,117)"></path><path d="M0 0 C5.94 0 11.88 0 18 0 C18 6.93 18 13.86 18 21 C17.67 21 17.34 21 17 21 C17 16.71 17 12.42 17 8 C10.07 8 3.14 8 -4 8 C-2.68 5.36 -1.36 2.72 0 0 Z " fill="#DB8707" transform="translate(213,167)"></path><path d="M0 0 C5.94 0 11.88 0 18 0 C19.32 2.64 20.64 5.28 22 8 C15.07 8 8.14 8 1 8 C1 12.29 1 16.58 1 21 C0.67 21 0.34 21 0 21 C0 14.07 0 7.14 0 0 Z " fill="#DB8707" transform="translate(25,167)"></path><path d="M0 0 C0.33 0 0.66 0 1 0 C1 6.93 1 13.86 1 21 C-4.94 21 -10.88 21 -17 21 C-18.32 18.36 -19.64 15.72 -21 13 C-14.07 13 -7.14 13 0 13 C0 8.71 0 4.42 0 0 Z " fill="#DD8807" transform="translate(230,68)"></path><path d="M0 0 C0.33 0 0.66 0 1 0 C1 4.29 1 8.58 1 13 C7.93 13 14.86 13 22 13 C20.68 15.64 19.36 18.28 18 21 C12.06 21 6.12 21 0 21 C0 14.07 0 7.14 0 0 Z " fill="#DD8807" transform="translate(25,68)"></path><path d="M0 0 C1.45792884 -0.05399736 2.91642712 -0.09279177 4.375 -0.125 C5.18710937 -0.14820313 5.99921875 -0.17140625 6.8359375 -0.1953125 C9 0 9 0 11 2 C10.625 5.125 10.625 5.125 10 8 C6.7 8 3.4 8 0 8 C0 5.36 0 2.72 0 0 Z " fill="#F7BC73" transform="translate(36,131)"></path><path d="M0 0 C3.375 -0.125 3.375 -0.125 7 0 C7.66 0.66 8.32 1.32 9 2 C8.75 4.5625 8.75 4.5625 8 7 C5.29120665 8.35439668 2.99066732 8.06501451 0 8 C0 5.36 0 2.72 0 0 Z " fill="#F3B871" transform="translate(77,117)"></path><path d="M0 0 C2.64 0 5.28 0 8 0 C8 2.31 8 4.62 8 7 C5.36 7 2.72 7 0 7 C0 4.69 0 2.38 0 0 Z " fill="#0C0C0B" transform="translate(124,160)"></path><path d="M0 0 C2.31 0 4.62 0 7 0 C7 2.64 7 5.28 7 8 C4.69 8 2.38 8 0 8 C0 5.36 0 2.72 0 0 Z " fill="#0F0F0F" transform="translate(166,64)"></path><path d="M0 0 C2.31 0 4.62 0 7 0 C7 2.31 7 4.62 7 7 C4.69 7 2.38 7 0 7 C0 4.69 0 2.38 0 0 Z " fill="#000000" transform="translate(151,57)"></path><path d="M0 0 C2.31 0 4.62 0 7 0 C7.38218767 1.65614657 7.71395102 3.32457024 8 5 C7 6 7 6 3.4375 6.0625 C2.303125 6.041875 1.16875 6.02125 0 6 C0 4.02 0 2.04 0 0 Z " fill="#F6BB72" transform="translate(36,117)"></path><path d="M0 0 C2.95183101 2.95183101 3.08663988 5.95511947 4 10 C1.69 10 -0.62 10 -3 10 C-2.49287967 6.28111761 -1.88391785 3.26545761 0 0 Z " fill="#D7A364" transform="translate(124,122)"></path></svg>